# xmcd
# 
# Track frame offsets:
#     150
#     11904
#     24757
#     36112
#     51225
#     62061
#     78082
#     95030
#     115456
#     129666
#     145969
#     164158
#     183684
#     199345
#     225822
#     243354
#     260683
#     271880
#     285315
#     297926
#     316378
# 
# Disc length: 4490
# 
# Revision: 6
# Processed by: cddbd v1.5.2PL0 Copyright (c) Steve Scherf et al.
# Submitted via: fre:ac v1.1beta1pre5
# 
DISCID=35118815
DTITLE=ニニ・ロッソ - NINI ROSSO - ムード・トランペットの王様  ニニ・ロッソの魅力 《 夜空のトランペット 》  (Disk２)
DYEAR=2010
DGENRE=Easy Listening
TTITLE0=ゴッドファーザー  愛のテーマ ／ Love Theme from The Godfather
TTITLE1=シシリアン ／ The Sicirian
TTITLE2=ラスト・タンゴ・イン・パリ ／ Last  Tango In Paris
TTITLE3=狼は天使の匂い ／ And Hope To Die
TTITLE4=ジャニー・ギター ～映画 「大砂嵐」より ／ Johnny Guitar
TTITLE5=今晩は、お嬢さん ／ Bouona Sera Signorita
TTITLE6=10円玉マーチ ／ Ten Yen March
TTITLE7=哀愁のヨーロッパ ／ Europe
TTITLE8=シバの女王 ／ La Reine De Saba
TTITLE9=青い影 ／ A Whiter Shade of Pale
TTITLE10=嘆きの天使 ／ Angel`s Theme
TTITLE11=アドロ ／ Adoro
TTITLE12=夜のメロディー ／ La Nuit
TTITLE13=ロマーナの祈り ／ Einsamer Hirte-Alphe C`Entaubi
TTITLE14=シューベルトのセレナーデ ／ Serenade from Schubert
TTITLE15=夢のトランペット ／ Capricio Romantico
TTITLE16=ヘンデルのラルゴ ／ Largo
TTITLE17=アルハンブラの思い出 ／ Recuerdos De La Alhambra
TTITLE18=雪が降る ／ Tombe La Neige
TTITLE19=ふたりの天使 ／ Concerto Pour Une Voix
TTITLE20=アリベデルチ・ローマ ／ Arrivederci, Roma
EXTD=
EXTT0=
EXTT1=
EXTT2=
EXTT3=
EXTT4=
EXTT5=
EXTT6=
EXTT7=
EXTT8=
EXTT9=
EXTT10=
EXTT11=
EXTT12=
EXTT13=
EXTT14=
EXTT15=
EXTT16=
EXTT17=
EXTT18=
EXTT19=
EXTT20=
PLAYORDER=
